<svg id="eUmzOZoMIQq1" xmlns="http://www.w3.org/2000/svg" xmlns:xlink="http://www.w3.org/1999/xlink" viewBox="0 0 2666 2666" shape-rendering="geometricPrecision" text-rendering="geometricPrecision"><g transform="translate(.045769 0)"><g><path d="M1244.5915,2608.314c-399.13447-22.8746-719.83769-195.785-921.63947-496.9111-217.81336-325.0185-259.06036-730.9578-106.73181-1050.4194c50.17526-105.22698,103.58003-181.30788,189.57921-270.07628c45.06032-46.5113,68.4975-65.3447,141.22268-113.4826c47.9579-31.7441,99.07927-64.0148,113.60304-71.7126l26.40681-13.9962l27.44965,21.801c37.44581,29.7402,73.4676,45.8301,102.74052,45.8912l23.99906.051-14.95799-29.4928c-36.67167-72.3059-8.30431-85.328,87.92248-40.361c56.11929,26.2247,88.03362,35.8675,102.99412,31.1192c8.7999-2.793,10.1116-6.316,7.7561-20.8311-1.5592-9.6083-7.5927-24.1513-13.4078-32.3179-13.55252-19.0327-13.45109-37.2931.2761-49.6564c9.7746-8.8035,19.0433-9.7236,93.6077-9.2922c274.2214,1.5868,504.181,82.0707,674.0347,235.9066c85.6955,77.6141,200.9505,236.3986,224.2584,308.95638c13.0024,40.4768,27.8052,40.8645,48.9615,1.2822l9.7907-18.3178-3.7269,30.7751c-2.0498,16.9263-3.7057,59.6268-3.6797,94.89.037,51.7009,1.8404,67.5907,9.3087,82.067c27.1659,52.6578,22.2906,243.8193-8.8965,348.838-4.3081,14.5066-18.2279,49.0533-30.9329,76.7704-37.9192,82.7238-36.7701,106.1679,4.5355,92.5358c9.9457-3.2824,23.3127-4.3069,29.7043-2.2767c9.5953,3.0477,6.1653,5.1852-19.6756,12.261-56.7742,15.5461-101.908,48.8069-153.3641,113.0198-124.7414,155.6667-296.2095,240.1542-531.5585,261.9149-59.1464,5.4688-70.8052,5.0298-133.3588-5.021-37.7004-6.0575-90.3963-16.5967-117.1019-23.4204s-49.3843-11.5781-50.3969-10.5656c-2.9475,2.9475,63.286,38.7045,100.6412,54.3325c39.8793,16.684,93.464,27.4267,115.9359,23.243c15.3416-2.8563,16.2886-1.8445,37.934,40.5288c35.3906,69.2814,84.6975,115.1465,124.3193,115.6414c22.2006.2774.091,8.6529-45.8432,17.3665-184.3058,34.9622-402.4895-45.2783-552.46332-203.1773-76.5479-80.5938-145.1488-217.6984-181.71326-363.1693-6.02716-23.979-12.17303-48.2144-13.6575-53.8565s9.64701,10.45,24.73667,35.7602c35.37083,59.3284,88.42968,113.8632,132.58398,136.2723c44.40813,22.5378,99.92144,26.5137,145.70251,10.4353c16.66268-5.852,36.73971-10.64,44.6156-10.64c23.21002,0,92.03872-24.0698,123.65662-43.2434c107.3215-65.0816,222.543-86.0689,296.2225-53.9564l28.0345,12.2187-28.2516,5.6594c-56.4462,11.3073-90.1543,41.1808-102.4781,90.82-3.4891,14.0535-5.1658,46.0413-3.9719,75.7688l2.0665,51.4475-118.1572-3.0011c-125.9311-3.1985-134.2498-.8591-61.6501,17.3376c64.0106,16.0438,112.5859,21.8579,182.0002,21.7837c169.0214-.1805,302.3513-53.6718,435.6415-174.7775c129.2761-117.4587,205.3073-272.9096,225.5509-461.1544c7.7126-71.7193-14.4861-124.843-74.8641-179.1571-17.4563-15.7031-30.4638-30.6141-28.9054-33.1354c4.5273-7.3255,38.4282,1.0473,59.2518,14.634c23.6281,15.4165,31.3905,15.9326,26.9014,1.7886-1.866-5.8791-8.7447-34.3755-15.2862-63.3253-61.0324-270.10458-295.0202-475.50288-623.7783-547.56258-46.334-10.1559-67.5415-11.6546-163.5164-11.5559-94.3942.097-117.5275,1.7296-160.61374,11.3344-170.91357,38.0997-329.19589,122.2919-443.97203,236.1537C407.93387,1010.0576,332.95407,1143.9292,303.13351,1301.9428c-18.88222,100.0534-9.16648,116.8508,39.3185,67.9769c15.77754-15.9041,29.42421-28.1788,30.32592-27.277.90176.9017-4.92398,25.0195-12.94598,53.5951-24.25502,86.3998-32.28963,147.128-29.61006,223.8026c2.11963,60.6528,4.11213,72.4264,18.85571,111.4174c104.72651,276.9608,310.67173,482.2558,593.08697,591.2146c118.79203,45.8312,295.89153,68.2088,440.25173,55.6286c208.2406-18.147,380.3728-88.8326,531.2175-218.143c72.0863-61.7955,140.9582-146.3405,202.7319-248.8673c55.1994-91.6155,87.5071-177.9697,108.539-290.1104c14.9805-79.8741,13.6388-251.9666-2.5571-328.008-32.8126-154.0585-101.1739-289.4706-212.463-420.85328-72.0311-85.0365-220.1836-191.5826-337.5544-242.7572l-38.4064-16.7456-15.7995-47.2055c-8.6897-25.963-24.0606-69.7098-34.1575-97.2151s-17.6288-50.0096-16.7374-50.0096s19.4721,8.2479,41.2905,18.3286c21.8183,10.0807,40.8816,17.1166,42.3628,15.6354c8.489-8.489-72.1132-129.9827-123.3161-185.8776l-29.9053-32.6457l17.0823,3.2154c32.2057,6.0621,136.8342,37.2652,187.2337,55.8384c66.1224,24.3673,202.5775,91.3221,260.7004,127.9186c117.8426,74.1984,247.069,188.7009,321.4463,284.8214c134.0718,173.2657,210.6413,360.03168,246.0324,600.11478c42.6935,289.62-45.3565,600.0763-234.2089,825.7991-53.4938,63.9376-175.9806,180.0378-230.6861,218.6577-170.1263,120.1027-362.0736,200.7293-571.9043,240.2258-43.7442,8.2339-167.2585,23.9336-176.9255,22.4887-2.8384-.4243-35.1664-2.4911-71.8401-4.5929v.0003ZM997.31855,906.93152c-22.38615-33.1228-37.14869-67.3007-37.28426-86.3196-.0825-11.5699-3.57119-17.6541-13.02399-22.7131-7.10126-3.8004-18.4574-14.1812-25.23589-23.0682-11.87271-15.5659-44.43981-75.5287-42.22445-77.744.59453-.5946,19.16367,8.0068,41.2648,19.1141c43.54815,21.886,70.23223,25.5364,89.25744,12.2106c6.2698-4.3916,11.3997-12.4796,11.3997-17.9735c0-6.5402,14.3204-20.6068,41.4776-40.7427c40.8238-30.269,42.0098-30.7538,75.2354-30.7538c18.5667,0,48.2876,2.5303,66.0463,5.6229c25.6012,4.4582,32.9999,7.8638,35.7228,16.4429c2.173,6.8465,1.0081,11.6289-3.172,13.0222-3.6333,1.2112-18.9431,8.6917-34.0217,16.6235-103.9219,54.6661-171.7937,134.7517-179.7801,212.1322-1.6189,15.686-4.3517,28.5155-6.0728,28.5101-1.7211,0-10.5361-10.9692-19.58885-24.3636ZM769.41409,628.61832c-10.27384-5.4283-29.89298-22.349-43.59809-37.6014-23.53858-26.1964-26.49565-27.8571-53.40718-29.9936-15.66885-1.244-39.42872-7.5577-52.79969-14.0305-24.36245-11.7937-80.2808-54.2311-80.2808-60.9266c0-1.9608,16.11254-3.5651,35.80566-3.5651c33.59281,0,36.84094-1.0352,52.55665-16.7509l16.75098-16.751-13.60458-11.4596c-7.48249-6.3027-16.53424-17.2298-20.11494-24.2825-6.83528-13.4628-15.20652-51.2918-11.35044-51.2918c1.23461,0,11.88835,5.6021,23.67489,12.4491c27.55584,16.0077,79.84219,25.3586,117.91688,21.0884c28.93034-3.2446,105.57164-21.025,110.08598-25.5393c1.23014-1.2301-5.78671-9.2812-15.59302-17.8912-18.0112-15.814-55.05628-79.5435-55.05628-94.7146c0-6.1871,6.2739-3.7101,25.39263,10.0253c28.4896,20.4677,73.94392,38.1612,98.03567,38.1612h15.97167l-12.88049-15.3075c-13.10635-15.576-34.19412-65.3656-34.19412-80.7345c0-6.7218,2.89943-5.755,14.10527,4.7029c74.83902,69.8442,198.36326,85.1375,302.72136,37.4792c64.9147-29.6453,163.1212-112.857,202.8921-171.9133l18.0285-26.7709l5.5093,19.8414c11.1456,40.1406,5.172,70.1611-19.1235,96.1061l-13.7789,14.7144l12.8229-3.7881c29.1951-8.6249,45.0827-17.5067,56.222-31.4306l11.7817-14.7269-2.523,46.3967c-1.6582,30.4933-6.0271,54.3184-12.7459,69.5075l-10.223,23.1108l35.1906,5.5412c19.3549,3.0476,38.6823,8.4389,42.9497,11.9805c6.2751,5.2078,62.5509,83.7176,75.5652,105.4201c1.8131,3.0236-8.0717-.1288-21.9662-7.005-19.0538-9.4296-29.6667-11.6762-43.1812-9.1409l-17.9184,3.3615l17.2095,24.1602c24.3101,34.1288,52.0058,91.2433,69.5228,143.3711c8.2462,24.5395,14.2032,45.4071,13.2378,46.3725s-22.4024-8.6142-47.6378-21.2882c-62.5551-31.417-139.458-57.4203-216.4763-73.1974-52.3043-10.7144-80.3249-13.3344-149.0458-13.9359-88.6412-.7759-175.6734,3.6586-191.2519,9.7446-12.62445,4.9319-22.19301,25.2097-28.82521,61.0864-3.08388,16.6823-5.60707,31.0325-5.60707,31.8893s-13.27179-4.4562-29.49282-11.8067c-100.53682-45.5582-135.5109-55.3932-149.00288-41.9013-9.21493,9.215-7.42542,46.8127,3.61058,75.857c8.88075,23.3722,8.99692,25.6804,1.2823,25.4742-4.6658-.1247-16.88923-4.668-27.16311-10.0963Zm403.41281-224.927c11.3084-5.1373,27.8152-17.6029,36.6818-27.7013c15.2821-17.4056,18.2995-18.5509,57.9937-22.0134c23.03-2.009,39.9911-5.4629,37.6914-7.6754-6.4679-6.2226-61.7966-15.1111-94.0636-15.1111-32.1549,0-97.7856,15.1826-123.8139,28.6424l-16.8204,8.6981l21.9601,19.4878c19.0627,16.9168,28.1512,20.9652,54.681,24.3576c2.821.3607,14.3815-3.5474,25.6899-8.6847Z" transform="translate(-.045831 0.04664)" fill="#daa520" fill-rule="evenodd" stroke="#b30000"/></g></g></svg>